<svg width="2383" height="1866" viewBox="0 0 2383 1866" fill="none" xmlns="http://www.w3.org/2000/svg">
<path d="M737.569 996.355C741.039 997.645 744.049 995.845 747.179 994.905C797.229 979.915 847.279 964.925 897.339 949.955C906.729 947.145 906.789 947.165 912.979 954.965C920.789 964.805 928.519 974.695 936.799 985.225C918.769 992.055 901.549 997.005 884.419 1002.15C810.369 1024.37 735.099 1041.31 658.819 1053.84C653.649 1054.69 650.249 1053.77 646.809 1049.47C639.899 1040.84 634.079 1031.56 628.379 1022.16C581.869 945.405 552.499 862.555 539.369 773.795C532.029 724.175 529.539 674.315 532.259 624.325C538.059 517.725 567.999 418.215 621.559 325.785C667.939 245.735 726.939 177.005 802.459 123.005C874.189 71.7151 953.889 38.5651 1039.48 18.6551C1105.13 3.3851 1171.58 -2.8949 1238.82 1.2451C1309.18 5.5751 1377.01 21.5951 1442.07 48.7951C1520.9 81.7551 1592.16 126.535 1653.86 185.985C1721.49 251.155 1770.31 328.545 1803.15 416.275C1815.42 449.055 1824.97 482.645 1832.72 516.755C1833.24 519.025 1833.26 521.425 1833.93 523.635C1836.64 532.475 1833.33 538.285 1826.37 544.185C1751.89 607.315 1671.15 661.285 1586.54 709.705C1577.29 714.995 1567.99 720.205 1558.65 725.335C1556.42 726.565 1554.42 728.665 1550.71 727.935C1549.07 723.495 1549.28 718.505 1549.2 713.655C1548.77 687.005 1549.65 660.355 1548.39 633.705C1547.84 622.035 1552.33 612.475 1561.6 604.905C1571.14 597.115 1579.74 588.135 1589.52 580.675C1598.39 573.915 1597.22 568.825 1586.23 565.435C1573.53 561.515 1561.29 556.095 1548.62 552.045C1542.2 549.995 1539.03 546.435 1537.1 540.035C1529.7 515.505 1522.48 490.905 1513.38 466.925C1494.37 416.785 1467.69 371.455 1429.16 333.705C1380.14 285.685 1321.9 255.475 1254.07 244.355C1195.66 234.775 1137.8 237.145 1081.27 255.435C1005.33 279.995 947.249 327.935 903.679 394.115C875.119 437.475 856.959 485.165 845.679 535.645C842.699 548.955 839.489 562.215 836.669 575.565C835.679 580.245 833.599 583.085 828.879 584.695C824.029 586.355 818.809 587.615 813.719 591.625C819.459 592.765 823.889 591.485 828.359 591.225C835.289 590.815 835.419 590.915 834.749 597.435C831.319 630.635 830.369 663.945 832.009 697.245C835.659 771.515 851.179 842.965 884.499 909.965C888.519 918.055 889.349 917.305 880.709 921.775C845.229 940.155 809.619 958.275 774.059 976.475C764.279 981.485 754.459 986.405 744.719 991.505C742.199 992.825 738.999 993.365 737.739 996.505C736.819 996.695 735.899 996.895 734.979 997.085C735.319 997.405 735.649 997.985 735.999 997.985C737.009 998.005 737.939 997.715 737.579 996.325L737.569 996.355Z" fill="white"/>
<path d="M485.499 809.915C490.419 829.355 495.069 847.705 499.719 866.055C500.439 868.915 499.559 871.205 497.429 873.235C494.289 876.215 491.359 879.425 488.219 882.405C457.789 911.295 433.349 944.925 411.109 980.245C404.539 990.675 399.099 1001.74 395.419 1013.6C384.639 1048.35 396.459 1077.39 428.729 1094.13C447.229 1103.73 467.369 1108.51 487.679 1112.31C524.589 1119.23 561.869 1119.16 599.199 1117.46C705.709 1112.59 808.519 1087.65 910.649 1059.43C1058.9 1018.46 1201.99 963.375 1341.81 899.615C1467.4 842.345 1588.84 777.385 1705.24 702.995C1759.33 668.425 1809.45 628.945 1857.2 586.235C1885.8 560.655 1913.4 534.145 1936.36 503.195C1948.09 487.375 1958.5 470.745 1967.24 453.075C1975.65 436.065 1979.63 418.035 1979.91 399.105C1980.14 383.235 1974.28 369.905 1963.38 358.625C1952.49 347.355 1938.98 340.285 1924.66 334.535C1904.05 326.255 1882.36 322.945 1860.43 320.855C1850.16 319.875 1839.85 319.015 1829.54 318.725C1824.46 318.585 1821.8 316.345 1819.43 312.245C1811.44 298.405 1803.14 284.735 1795.02 270.965C1789.51 261.625 1790.46 259.505 1801.1 259.035C1820.4 258.175 1839.66 256.675 1858.99 256.425C1900.39 255.895 1941.59 257.585 1982.13 266.785C2006.52 272.325 2030.6 278.855 2052.17 292.265C2064.14 299.695 2075.15 308.225 2084.06 319.235C2101.8 341.145 2106.41 366.385 2102.25 393.555C2097.57 424.085 2084.57 451.345 2067.79 476.905C2038.52 521.475 2002.71 560.365 1963.45 596.205C1933.64 623.415 1902.02 648.415 1869.36 672.065C1863.82 676.075 1861.25 680.445 1860.15 687.325C1852.24 736.635 1841.05 785.285 1829.53 833.845C1808.18 923.805 1770.74 1006.61 1714.82 1080.17C1618.37 1207.03 1492.06 1288.31 1336.01 1322.4C1279.48 1334.75 1222.16 1340.1 1164.33 1337.78C1027.73 1332.29 904.309 1288.46 793.459 1208.82C780.209 1199.3 767.499 1189.03 754.779 1178.81C749.989 1174.96 745.259 1173.54 739.169 1174.85C687.279 1186.03 634.559 1190.57 581.769 1194.81C541.919 1198.01 502.059 1201.39 462.049 1200.14C418.329 1198.78 376.149 1190.14 336.729 1170.4C323.219 1163.64 310.819 1155.19 301.019 1143.55C278.819 1117.2 273.839 1087.01 283.079 1054.5C293.319 1018.47 311.979 986.635 334.389 956.905C359.969 922.955 390.299 893.465 421.419 864.745C437.329 850.055 453.539 835.695 469.519 821.075C473.969 817.005 478.769 813.555 485.529 809.925L485.499 809.915ZM1082.74 1081.94C1084.62 1082.58 1086.48 1083.35 1088.4 1083.86C1151.94 1100.64 1215.92 1104.08 1280.08 1088.3C1379.44 1063.87 1451.39 1005.5 1494.63 912.415C1495.75 910.005 1498.48 907.575 1496.08 903.625C1361.96 971.445 1223.83 1029.77 1082.74 1081.94Z" fill="white"/>
<path d="M1143.86 881.005C1104.85 889.495 1065.83 897.975 1026.82 906.465C1009.91 910.145 993.019 913.905 976.109 917.575C969.949 918.915 963.759 920.255 956.939 917.935C960.319 912.895 965.499 911.315 970.109 909.105C1054.73 868.475 1139.38 827.935 1224.02 787.365C1227.92 785.495 1231.71 783.275 1235.77 781.865C1250.85 776.625 1259.26 764.155 1269.09 752.385C1265.8 749.205 1261.81 748.495 1258.3 747.045C1226.86 733.955 1197.75 717.085 1175.95 690.475C1167.81 680.545 1159.93 677.285 1147.46 678.135C1106.25 680.935 1064.97 682.525 1023.71 684.565C1021.05 684.695 1018.39 684.685 1015.73 684.595C1014.69 684.555 1013.91 683.775 1013.85 682.695C1013.8 681.715 1014.01 680.715 1015.17 680.335C1017.37 679.605 1019.56 678.805 1021.78 678.165C1057.89 667.705 1094.01 657.255 1130.13 646.825C1132.36 646.185 1134.75 646.015 1137.13 643.485C1132.07 637.215 1126.82 630.905 1121.81 624.405C1119.55 621.475 1116.79 621.785 1113.74 622.105C1096.85 623.885 1079.94 625.535 1063.06 627.345C1028.62 631.025 994.199 634.775 959.759 638.495C937.249 640.925 914.729 643.355 892.219 645.795C891.229 645.905 890.209 646.265 889.249 646.125C886.569 645.745 882.299 648.525 881.579 644.435C880.869 640.445 885.539 640.885 888.189 640.125C953.129 621.565 1018.09 603.065 1083.04 584.545C1083.68 584.365 1084.28 584.085 1086.16 583.385C1081.15 575.775 1075.48 569.065 1069.55 562.575C1067.75 560.605 1065.14 561.795 1062.87 562.055C1035.74 565.165 1008.61 568.255 981.489 571.415C950.069 575.085 918.659 578.835 887.239 582.545C880.959 583.285 874.669 583.975 868.379 584.695C865.579 585.015 862.939 585.065 862.249 581.435C861.509 577.555 864.409 577.225 866.999 576.495C890.369 569.875 913.719 563.225 937.079 556.585C969.399 547.395 1001.73 538.195 1034.05 528.995C1035.29 528.645 1036.5 528.215 1037.72 527.825C1038.17 523.665 1034.98 521.705 1033.02 519.235C1016.89 498.865 1000.58 478.635 984.459 458.245C982.329 455.545 978.719 453.395 979.669 448.335C986.189 447.855 991.789 450.935 997.469 453.285C1047.59 474.035 1097.66 494.895 1147.75 515.715C1155.74 519.035 1163.71 522.395 1171.74 525.625C1174.07 526.565 1176.41 527.875 1179.3 527.545C1179.9 523.295 1177.08 521.005 1175.42 518.375C1155.7 487.105 1135.81 455.945 1116.19 424.625C1114.33 421.655 1109.16 418.475 1113.08 414.435C1116.4 411.005 1120.61 414.615 1124.09 415.935C1129.04 417.815 1133.69 420.525 1138.43 422.945C1186.75 447.635 1234.99 472.465 1283.42 496.935C1293.02 501.785 1300.34 508.455 1305.87 517.515C1317.49 536.555 1329.18 555.565 1341.04 574.465C1345.28 581.225 1349.99 587.705 1354.66 594.195C1358.94 600.155 1359.1 600.155 1365.41 595.785C1378.28 586.875 1391.1 577.885 1403.93 568.915C1412.45 562.965 1421.51 558.015 1431.51 555.135C1449.11 550.055 1466.33 551.985 1481.4 562.035C1495.13 571.195 1510.06 575.635 1525.76 578.975C1531.14 580.115 1536.84 580.865 1542.19 584.755C1537.91 588.975 1533.06 590.805 1528.19 592.485C1500.28 602.155 1481.14 621.055 1470.84 648.475C1454.43 692.175 1433.36 733.775 1413.89 776.085C1405.11 795.155 1390.35 808.005 1371.19 816.125C1325.23 835.605 1279.33 855.235 1233.33 874.625C1192.54 891.805 1151.65 908.745 1110.81 925.785C1075.33 940.595 1038.21 949.785 1000.8 957.935C1000.65 956.885 1000.48 955.825 1000.31 954.775C1043.18 933.925 1086.04 913.075 1128.92 892.245C1133.38 890.075 1137.92 888.045 1142.39 885.965C1146.37 884.065 1151.1 883.485 1154.35 879.425C1150.34 878.015 1147.22 880.205 1143.9 880.995L1143.86 881.005Z" fill="url(#paint0_linear_24_2078)"/>
<path d="M1075.5 1865.5C1001.77 1866.75 941.389 1825.38 923.599 1757.39C900.819 1670.36 953.749 1607.36 1013.59 1584.06C1107.85 1547.35 1197.03 1607.81 1218.13 1683.32C1234.42 1741.64 1209.8 1805.89 1157.48 1840.21C1133.51 1855.93 1108.11 1863.77 1075.51 1865.5H1075.5ZM1069.77 1820.6C1081.57 1820.96 1093.06 1819.24 1104.32 1816.01C1144.07 1804.58 1172.72 1771.99 1177.38 1733.39C1183.3 1684.33 1155.13 1649.34 1125.18 1633.5C1084.56 1612.01 1044.28 1616.03 1006.8 1640.44C951.779 1676.28 953.189 1745.03 987.439 1784.45C1009.1 1809.38 1037.25 1820.16 1069.77 1820.6Z" fill="white"/>
<path d="M1675.4 1729.77C1675.4 1698.47 1675.39 1667.17 1675.4 1635.86C1675.4 1627.09 1675.49 1627.24 1684.27 1625.26C1691.2 1623.7 1698.21 1624.17 1705.16 1624.16C1749.11 1624.09 1793.07 1624.2 1837.02 1624.26C1848.76 1624.28 1860.16 1626.08 1871.28 1630.02C1900.31 1640.31 1916.4 1677.69 1897.01 1706.58C1894.05 1711 1891.07 1715.47 1887.56 1719.44C1884.32 1723.1 1884.98 1725.59 1888.28 1728.61C1892.21 1732.2 1895.69 1736.27 1899.53 1739.96C1931.12 1770.34 1912.67 1822.09 1872.44 1832.23C1863.37 1834.52 1854.13 1835.96 1844.8 1836.01C1796.52 1836.27 1748.24 1836.35 1699.96 1836.46C1693.96 1836.47 1688.03 1835.34 1682.08 1834.89C1676.22 1834.45 1675.27 1831.79 1675.3 1826.67C1675.49 1797.37 1675.39 1768.06 1675.39 1738.76V1729.77H1675.4ZM1785.83 1798.38V1798.21C1806.13 1798.21 1826.43 1798.36 1846.73 1798.15C1859.37 1798.02 1867.32 1791.37 1869.39 1779.97C1872 1765.56 1866.41 1753.96 1854.84 1749.39C1850.67 1747.75 1846.34 1747.93 1842.05 1747.72C1819.44 1746.6 1796.81 1746.8 1774.18 1746.86C1758.21 1746.9 1742.24 1747.06 1726.27 1747.22C1717.83 1747.31 1717.78 1747.36 1717.75 1756.19C1717.71 1767.84 1717.67 1779.49 1717.77 1791.14C1717.83 1798.17 1717.94 1798.32 1724.93 1798.35C1745.23 1798.43 1765.53 1798.38 1785.83 1798.38ZM1778.4 1709.91V1709.65C1796.05 1709.65 1813.69 1709.68 1831.34 1709.63C1837.35 1709.61 1843.32 1709.05 1848.95 1706.72C1858.61 1702.72 1863.6 1693.85 1862.69 1682.52C1861.79 1671.42 1856.04 1664.71 1845.14 1662.47C1841.57 1661.74 1837.88 1661.4 1834.23 1661.29C1804.6 1660.38 1774.98 1660.82 1745.36 1661.56C1737.76 1661.75 1730.12 1661.2 1722.57 1663.51C1718.28 1664.82 1716.67 1666.66 1716.77 1671.07C1717.01 1681.39 1716.77 1691.71 1716.87 1702.04C1716.94 1709.73 1717.02 1709.85 1724.47 1709.88C1742.45 1709.95 1760.43 1709.9 1778.42 1709.9L1778.4 1709.91Z" fill="white"/>
<path d="M1516.16 1763.8C1536.56 1786.83 1556.54 1809.38 1576.67 1832.1C1551.58 1844.38 1528.64 1838 1515.06 1824.34C1506.85 1816.08 1498.53 1807.79 1491.43 1798.6C1475.91 1778.52 1455.27 1768.79 1430.63 1766.5C1412.03 1764.77 1393.36 1765.47 1374.71 1765.23C1369.19 1765.16 1368.04 1767.58 1368.08 1772.42C1368.25 1790.74 1368.18 1809.06 1368.12 1827.38C1368.09 1835.53 1368 1835.59 1359.96 1835.64C1350.63 1835.7 1341.3 1835.53 1331.98 1835.7C1327.83 1835.78 1325.65 1834.46 1326.03 1830C1326.2 1828.02 1326.05 1826.01 1326.05 1824.01C1326.05 1761.05 1326.05 1698.1 1326.05 1635.14C1326.05 1633.47 1326.24 1631.78 1326.02 1630.15C1325.24 1624.59 1328.1 1623.53 1332.98 1623.54C1388.6 1623.73 1444.23 1623.14 1499.84 1624.61C1505.79 1624.77 1511.81 1625.74 1517.6 1627.12C1546.38 1633.97 1564.69 1653.89 1569.12 1682.72C1573.76 1712.9 1562.94 1736.9 1537.32 1752.52C1530.86 1756.46 1523.95 1759.66 1516.14 1763.78L1516.16 1763.8ZM1438.88 1664.46V1664.3C1417.93 1664.3 1396.98 1664.45 1376.03 1664.19C1370.8 1664.13 1369.15 1665.79 1369.25 1670.97C1369.53 1686.26 1369.28 1701.56 1369.37 1716.86C1369.41 1723.87 1369.55 1724.03 1376.53 1724.04C1415.11 1724.1 1453.69 1724.04 1492.26 1724.09C1499.5 1724.1 1506.02 1721.87 1512.04 1718.17C1523.54 1711.12 1527.69 1698.84 1523.81 1684.15C1520.2 1670.52 1512.63 1664.62 1497.74 1664.49C1478.12 1664.32 1458.5 1664.45 1438.88 1664.45V1664.46Z" fill="white"/>
<path d="M303.609 1733.7C303.609 1701.72 303.609 1669.75 303.609 1637.77C303.609 1635.44 303.669 1633.11 303.639 1630.78C303.599 1627.95 304.859 1626.44 307.779 1626.47C310.109 1626.49 312.439 1626.44 314.769 1626.44C377.389 1626.44 440.009 1626.43 502.619 1626.44C514.919 1626.44 513.629 1625.39 513.689 1637.88C513.729 1645.87 513.549 1653.87 513.749 1661.86C513.849 1666.09 512.319 1667.94 507.979 1667.77C502.659 1667.56 497.319 1667.73 491.989 1667.73C448.359 1667.73 404.719 1667.73 361.089 1667.73C358.759 1667.73 356.419 1667.86 354.099 1667.73C350.199 1667.52 348.839 1669.41 348.869 1673.12C348.969 1684.44 348.949 1695.77 348.869 1707.09C348.849 1710.78 350.229 1712.69 354.159 1712.4C356.479 1712.23 358.819 1712.4 361.149 1712.4C401.449 1712.4 441.749 1712.4 482.059 1712.4C484.389 1712.4 486.729 1712.51 489.049 1712.4C492.419 1712.24 493.869 1713.75 493.849 1717.11C493.789 1727.77 493.749 1738.43 493.879 1749.08C493.929 1753.11 491.939 1754.15 488.339 1754.11C478.019 1754 467.689 1754.08 457.359 1754.08C424.049 1754.08 390.749 1754.05 357.439 1754.1C349.349 1754.11 349.279 1754.23 349.209 1762.34C349.129 1772 349.109 1781.66 349.209 1791.32C349.289 1799.3 349.389 1799.42 357.709 1799.44C384.019 1799.5 410.339 1799.46 436.649 1799.46C460.959 1799.46 485.279 1799.42 509.589 1799.48C517.569 1799.5 517.619 1799.62 517.669 1807.82C517.729 1817.48 517.529 1827.14 517.749 1836.8C517.849 1841.15 516.199 1842.9 511.939 1842.55C509.959 1842.39 507.949 1842.53 505.949 1842.53C442.329 1842.53 378.719 1842.53 315.099 1842.53C313.769 1842.53 312.429 1842.56 311.099 1842.53C303.739 1842.35 303.619 1842.34 303.609 1834.61C303.559 1800.97 303.589 1767.33 303.589 1733.69L303.609 1733.7Z" fill="url(#paint1_linear_24_2078)"/>
<path d="M585.899 1843.68C587.569 1838.82 590.369 1836.81 592.559 1834.37C620.479 1803.48 648.459 1772.66 676.389 1741.78C683.789 1733.59 683.939 1735.37 676.649 1726.47C652.379 1696.83 626.599 1668.5 600.959 1640.05C597.649 1636.37 594.319 1632.7 591.079 1629.13C593.119 1626.03 595.689 1627.22 597.799 1627.2C610.459 1627.08 623.109 1627.22 635.769 1627.11C645.339 1627.03 653.049 1630.38 659.479 1637.7C675.529 1655.96 691.889 1673.95 708.219 1691.96C710.619 1694.6 712.449 1698.01 716.909 1699.42C720.699 1695.14 724.669 1690.71 728.579 1686.25C744.369 1668.2 760.259 1650.23 775.859 1632.02C779.409 1627.88 783.059 1625.99 788.619 1626.14C802.599 1626.52 816.599 1626.24 830.589 1626.31C832.789 1626.32 835.179 1625.57 837.769 1627.71C836.559 1631.37 833.669 1634.1 831.249 1637.06C810.119 1662.85 786.749 1686.61 764.459 1711.35C759.779 1716.54 755.419 1722.06 750.469 1726.98C746.359 1731.07 747.339 1733.89 750.899 1737.72C769.939 1758.22 788.759 1778.93 807.659 1799.56C817.329 1810.12 827.019 1820.66 836.689 1831.23C838.039 1832.7 839.549 1834.08 840.629 1835.74C843.029 1839.4 842.089 1842.44 837.669 1842.99C807.479 1846.71 784.119 1847.62 763.439 1819.56C750.379 1801.84 734.919 1786.11 720.179 1769.81C715.789 1764.96 715.489 1764.97 711.069 1769.87C691.209 1791.88 671.269 1813.81 651.749 1836.12C646.949 1841.6 642.159 1844.15 634.689 1843.86C618.809 1843.25 602.889 1843.68 585.899 1843.68V1843.68Z" fill="url(#paint2_linear_24_2078)"/>
<path d="M106.569 1842.39C74.2489 1842.39 41.9289 1842.4 9.60893 1842.39C0.0989332 1842.39 0.0189339 1842.33 0.0189339 1833.49C-0.00106609 1767.85 -0.0110661 1702.22 0.0189339 1636.58C0.0189339 1628.29 0.128933 1628.21 8.06893 1628.15C17.7289 1628.07 27.3989 1628.27 37.0589 1628.07C41.2789 1627.98 43.2789 1629.42 42.9889 1633.78C42.8289 1636.1 42.9789 1638.44 42.9789 1640.77C42.9789 1690.41 42.9689 1740.06 42.9889 1789.7C42.9889 1801.51 42.0989 1800.55 53.6589 1800.55C102.639 1800.57 151.619 1800.56 200.589 1800.56C202.589 1800.56 204.589 1800.52 206.589 1800.56C213.939 1800.74 214.019 1800.75 214.099 1808.54C214.189 1816.87 214.159 1825.2 214.099 1833.53C214.049 1842.28 214.009 1842.36 205.519 1842.37C179.199 1842.41 152.879 1842.39 126.559 1842.39C119.899 1842.39 113.229 1842.39 106.569 1842.39Z" fill="url(#paint3_linear_24_2078)"/>
<path d="M2265.04 1626.85C2301.33 1626.85 2337.61 1626.83 2373.9 1626.87C2382.14 1626.87 2382.19 1626.97 2382.29 1634.98C2382.37 1641.64 2382.4 1648.29 2382.28 1654.94C2382.16 1661.93 2382.07 1662.08 2375 1662.1C2350.03 1662.17 2325.06 1662.13 2300.1 1662.13C2290.65 1662.13 2285.93 1666.88 2285.93 1676.38C2285.93 1724.98 2285.93 1773.58 2285.93 1822.18C2285.93 1824.51 2285.85 1826.85 2285.93 1829.18C2286.04 1832.41 2284.84 1834.01 2281.32 1833.96C2271 1833.82 2260.68 1833.8 2250.36 1833.96C2246.38 1834.02 2245.02 1832.27 2245.25 1828.55C2245.4 1826.23 2245.27 1823.89 2245.27 1821.56C2245.27 1771.96 2245.27 1722.35 2245.27 1672.75C2245.27 1670.42 2245.19 1668.09 2245.26 1665.76C2245.35 1662.7 2243.69 1661.71 2240.9 1661.73C2235.57 1661.77 2230.25 1661.71 2224.92 1661.71C2201.28 1661.71 2177.65 1661.75 2154.01 1661.68C2146.86 1661.66 2146.78 1661.54 2146.67 1654.67C2146.56 1648.35 2146.61 1642.01 2146.65 1635.68C2146.71 1626.92 2146.74 1626.86 2155.19 1626.85C2181.49 1626.81 2207.79 1626.84 2234.09 1626.84C2244.41 1626.84 2254.73 1626.84 2265.05 1626.84L2265.04 1626.85Z" fill="white"/>
<path d="M2052.48 1834.87C2041.96 1834.87 2031.02 1834.84 2020.07 1834.89C2016.77 1834.9 2015.18 1833.55 2015.46 1830.11C2015.62 1828.13 2015.48 1826.12 2015.48 1824.12C2015.48 1761.86 2015.48 1699.59 2015.48 1637.33C2015.48 1635.33 2015.62 1633.32 2015.46 1631.34C2015.16 1627.48 2016.84 1626.02 2020.67 1626.08C2029.99 1626.23 2039.32 1626.27 2048.64 1626.07C2052.67 1625.98 2053.98 1627.73 2053.67 1631.42C2053.56 1632.74 2053.67 1634.08 2053.67 1635.41C2053.67 1699.01 2053.67 1762.6 2053.65 1826.2C2053.65 1828.83 2054.17 1831.54 2052.5 1834.88L2052.48 1834.87Z" fill="white"/>
<path d="M1000.27 954.785C1000.44 955.835 1000.61 956.885 1000.76 957.945C998.279 958.625 995.819 959.335 993.339 959.945C992.409 960.175 991.429 960.135 990.379 960.225C993.089 957.245 996.559 955.805 1000.27 954.785Z" fill="#D4A574"/>
<path d="M737.569 996.355C737.929 997.745 736.999 998.036 735.989 998.016C735.649 998.016 735.309 997.425 734.969 997.115C735.889 996.925 736.809 996.725 737.729 996.535L737.569 996.365V996.355Z" fill="white"/>
<defs>
<linearGradient id="paint0_linear_24_2078" x1="1026.15" y1="517.494" x2="1452.15" y2="880.494" gradientUnits="userSpaceOnUse">
<stop stop-color="#F9CFA4"/>
<stop offset="1" stop-color="#D9A976"/>
</linearGradient>
<linearGradient id="paint1_linear_24_2078" x1="203.055" y1="1668.08" x2="318.193" y2="1970.67" gradientUnits="userSpaceOnUse">
<stop stop-color="#F9CFA4"/>
<stop offset="1" stop-color="#D9A976"/>
</linearGradient>
<linearGradient id="paint2_linear_24_2078" x1="203.055" y1="1668.08" x2="318.193" y2="1970.67" gradientUnits="userSpaceOnUse">
<stop stop-color="#F9CFA4"/>
<stop offset="1" stop-color="#D9A976"/>
</linearGradient>
<linearGradient id="paint3_linear_24_2078" x1="203.055" y1="1668.08" x2="318.193" y2="1970.67" gradientUnits="userSpaceOnUse">
<stop stop-color="#F9CFA4"/>
<stop offset="1" stop-color="#D9A976"/>
</linearGradient>
</defs>
</svg>
